<svg xmlns="http://www.w3.org/2000/svg" xmlns:xlink="http://www.w3.org/1999/xlink" viewBox="0 0 92.77 112.27"><defs><style>.cls-1{fill:url(#linear-gradient);}.cls-2{fill:url(#linear-gradient-2);}</style><linearGradient id="linear-gradient" x1="14.22" y1="61.43" x2="32.9" y2="101.1" gradientUnits="userSpaceOnUse"><stop offset="0.05" stop-color="#c810e4"/><stop offset="0.32" stop-color="#d913c7"/><stop offset="0.69" stop-color="#ed17a6"/><stop offset="0.9" stop-color="#f51999"/></linearGradient><linearGradient id="linear-gradient-2" x1="17.2" y1="9.63" x2="29.94" y2="36.68" gradientUnits="userSpaceOnUse"><stop offset="0.12" stop-color="#c810e4"/><stop offset="0.27" stop-color="#d012d7"/><stop offset="1" stop-color="#f51999"/></linearGradient></defs><g id="Layer_2" data-name="Layer 2"><g id="Layer_1-2" data-name="Layer 1"><path d="M68.77,111.77C57.88,111.77,49,103.85,49,94.12V65.35A1.87,1.87,0,0,0,48.49,64,2.09,2.09,0,0,0,47,63.45H11a6.48,6.48,0,1,1,0-13H56a9,9,0,0,0,3.75-.85,21.44,21.44,0,0,1,9-2h2.5C82.15,47.69,91,55.61,91,65.35V94.12c0,9.73-8.86,17.65-19.74,17.65Z"/><path d="M71.27,48.19c10.61,0,19.24,7.7,19.24,17.16V94.12c0,9.46-8.63,17.15-19.24,17.15h-2.5c-10.61,0-19.24-7.69-19.24-17.15V65.33a2.33,2.33,0,0,0-.69-1.64A2.54,2.54,0,0,0,47,63H11a6,6,0,1,1,0-12H56a9.33,9.33,0,0,0,4-.9,20.91,20.91,0,0,1,8.8-1.9h2.5m0-1h-2.5a21.94,21.94,0,0,0-9.22,2A8.56,8.56,0,0,1,56,50H11a7,7,0,1,0,0,14H47a1.44,1.44,0,0,1,1.51,1.38V94.12c0,10,9.06,18.15,20.24,18.15h2.5c11.18,0,20.24-8.13,20.24-18.15V65.35c0-10-9.06-18.16-20.24-18.16Z"/><circle cx="70.65" cy="22.15" r="21.62"/><path d="M70.65,1A21.12,21.12,0,1,1,49.53,22.15,21.14,21.14,0,0,1,70.65,1m0-1A22.12,22.12,0,1,0,92.77,22.15,22.11,22.11,0,0,0,70.65,0Z"/><path class="cls-1" d="M25.52,47.19H20.15A19.37,19.37,0,0,0,.74,66.52V93a19.37,19.37,0,0,0,19.41,19.32h5.37A19.37,19.37,0,0,0,44.94,93V66.52A19.38,19.38,0,0,0,25.52,47.19Z"/><circle class="cls-2" cx="23.08" cy="22.12" r="22.12"/><path d="M13.28,67.5a6.56,6.56,0,0,1-1.7-.22L5.71,65.8a6.92,6.92,0,0,1-5-8.38L1,56.25A6.89,6.89,0,0,1,7.69,51a7,7,0,0,1,1.7.21l5.88,1.49a6.92,6.92,0,0,1,5,8.38L20,62.29A6.88,6.88,0,0,1,13.28,67.5Z"/><path d="M7.69,51.54h0a6.52,6.52,0,0,1,1.58.2l5.87,1.49A6.4,6.4,0,0,1,19.77,61l-.29,1.17a6.38,6.38,0,0,1-7.77,4.63L5.83,65.31A6.39,6.39,0,0,1,1.2,57.54l.29-1.17a6.4,6.4,0,0,1,6.2-4.83m0-1A7.4,7.4,0,0,0,.52,56.12L.23,57.29a7.4,7.4,0,0,0,5.35,9l5.88,1.49a7.63,7.63,0,0,0,1.82.23,7.41,7.41,0,0,0,7.17-5.59l.29-1.17a7.38,7.38,0,0,0-5.35-9L9.51,50.77a7.63,7.63,0,0,0-1.82-.23Z"/></g></g></svg>